<svg width="32" height="32" viewBox="0 0 32 32" fill="none" xmlns="http://www.w3.org/2000/svg">
  <rect width="32" height="32" rx="8" fill="#E27625"/>
  <path d="M5.5 14.5L13 10.5L21.5 14.5L13 18.5L5.5 14.5Z" fill="#E27625" stroke="#233447" stroke-width="0.5"/>
  <path d="M8 15.5L13 13L21 15.5L13 19L8 15.5Z" fill="#233447"/>
  <path d="M13 13V18.5" stroke="#233447" stroke-width="0.5"/>
  <path d="M5.5 14.5L8 15.5L13 13" fill="#D7BEBE"/>
  <path d="M21.5 14.5L13 13L24 15.5" fill="#D7BEBE"/>
  <path d="M24 15.5L21.5 14.5" stroke="#233447" stroke-width="0.5"/>
  <rect x="9" y="19" width="8" height="5" rx="1" fill="#CC6228"/>
  <path d="M9.5 24H16.5L14 26.5H10L9.5 24Z" fill="#E27625"/>
  <path d="M13 19V22" stroke="#233447" stroke-width="0.5"/>
  <path d="M17 21L19.5 19.5L21 20.5" fill="#F5841F"/>
  <path d="M21 20.5L17.5 23L18.5 21.5" fill="#233447"/>
  <path d="M9.5 19L12.5 22L10.5 24" fill="#F5841F"/>
  <path d="M10.5 24L8.5 22L6.5 23" fill="#233447"/>
  <rect x="14" y="21" width="2" height="2" fill="#233447"/>
</svg>